{"asset":{"generator":"Crestbound propkit (Blender 5.1.2)","version":"2.0"},"extensionsUsed":["KHR_materials_emissive_strength"],"scene":0,"scenes":[{"name":"Scene","nodes":[0]}],"nodes":[{"mesh":0,"name":"bridge_plank"}],"materials":[{"emissiveFactor":[1,1,1],"emissiveTexture":{"index":0},"extensions":{"KHR_materials_emissive_strength":{"emissiveStrength":2}},"name":"verdant_atlas","normalTexture":{"index":1},"occlusionTexture":{"index":2},"pbrMetallicRoughness":{"baseColorTexture":{"index":3},"metallicRoughnessTexture":{"index":2}},"doubleSided":false}],"meshes":[{"name":"bridge_plank","primitives":[{"attributes":{"POSITION":0,"NORMAL":1,"TEXCOORD_0":2},"indices":3,"material":0}]}],"textures":[{"sampler":0,"source":0},{"sampler":0,"source":1},{"sampler":0,"source":2},{"sampler":0,"source":3}],"images":[{"mimeType":"image/png","name":"verdant_emissive","uri":"textures/verdant_emissive.png"},{"mimeType":"image/png","name":"verdant_normal","uri":"textures/verdant_normal.png"},{"mimeType":"image/png","name":"verdant_orm","uri":"textures/verdant_orm.png"},{"mimeType":"image/png","name":"verdant_albedo","uri":"textures/verdant_albedo.png"}],"accessors":[{"bufferView":0,"componentType":5126,"count":696,"max":[1,0.10900000482797623,0.1860000044107437],"min":[-1,-0.019499998539686203,-0.15000000596046448],"type":"VEC3"},{"bufferView":1,"componentType":5126,"count":696,"type":"VEC3"},{"bufferView":2,"componentType":5126,"count":696,"type":"VEC2"},{"bufferView":3,"componentType":5123,"count":1692,"type":"SCALAR"}],"bufferViews":[{"buffer":0,"byteLength":8352,"byteOffset":0,"target":34962},{"buffer":0,"byteLength":8352,"byteOffset":8352,"target":34962},{"buffer":0,"byteLength":5568,"byteOffset":16704,"target":34962},{"buffer":0,"byteLength":3384,"byteOffset":22272,"target":34963}],"samplers":[{"magFilter":9729,"minFilter":9987}],"buffers":[{"byteLength":25656,"uri":"bridge_plank.bin"}]}