{"asset":{"generator":"Crestbound propkit (Blender 5.1.2)","version":"2.0"},"extensionsUsed":["KHR_materials_emissive_strength"],"scene":0,"scenes":[{"name":"Scene","nodes":[0]}],"nodes":[{"mesh":0,"name":"flowerbed_LOD1"}],"materials":[{"emissiveFactor":[1,1,1],"emissiveTexture":{"index":0},"extensions":{"KHR_materials_emissive_strength":{"emissiveStrength":2}},"name":"verdant_atlas","normalTexture":{"index":1},"occlusionTexture":{"index":2},"pbrMetallicRoughness":{"baseColorTexture":{"index":3},"metallicRoughnessTexture":{"index":2}},"doubleSided":false}],"meshes":[{"name":"flowerbed_LOD1.001","primitives":[{"attributes":{"POSITION":0,"NORMAL":1,"TEXCOORD_0":2},"indices":3,"material":0}]}],"textures":[{"sampler":0,"source":0},{"sampler":0,"source":1},{"sampler":0,"source":2},{"sampler":0,"source":3}],"images":[{"mimeType":"image/png","name":"verdant_emissive","uri":"textures/verdant_emissive.png"},{"mimeType":"image/png","name":"verdant_normal","uri":"textures/verdant_normal.png"},{"mimeType":"image/png","name":"verdant_orm","uri":"textures/verdant_orm.png"},{"mimeType":"image/png","name":"verdant_albedo","uri":"textures/verdant_albedo.png"}],"accessors":[{"bufferView":0,"componentType":5126,"count":1174,"max":[0.5252582430839539,0.37230584025382996,0.47375941276550293],"min":[-0.5540421009063721,-0.010888895019888878,-0.5225809216499329],"type":"VEC3"},{"bufferView":1,"componentType":5126,"count":1174,"type":"VEC3"},{"bufferView":2,"componentType":5126,"count":1174,"type":"VEC2"},{"bufferView":3,"componentType":5123,"count":1743,"type":"SCALAR"}],"bufferViews":[{"buffer":0,"byteLength":14088,"byteOffset":0,"target":34962},{"buffer":0,"byteLength":14088,"byteOffset":14088,"target":34962},{"buffer":0,"byteLength":9392,"byteOffset":28176,"target":34962},{"buffer":0,"byteLength":3486,"byteOffset":37568,"target":34963}],"samplers":[{"magFilter":9729,"minFilter":9987}],"buffers":[{"byteLength":41056,"uri":"flowerbed_lod1.bin"}]}