{"asset":{"generator":"Crestbound propkit (Blender 5.1.2)","version":"2.0"},"extensionsUsed":["KHR_materials_emissive_strength"],"scene":0,"scenes":[{"name":"Scene","nodes":[0]}],"nodes":[{"mesh":0,"name":"flowerbed"}],"materials":[{"emissiveFactor":[1,1,1],"emissiveTexture":{"index":0},"extensions":{"KHR_materials_emissive_strength":{"emissiveStrength":2}},"name":"verdant_atlas","normalTexture":{"index":1},"occlusionTexture":{"index":2},"pbrMetallicRoughness":{"baseColorTexture":{"index":3},"metallicRoughnessTexture":{"index":2}},"doubleSided":false}],"meshes":[{"name":"flowerbed.001","primitives":[{"attributes":{"POSITION":0,"NORMAL":1,"TEXCOORD_0":2},"indices":3,"material":0}]}],"textures":[{"sampler":0,"source":0},{"sampler":0,"source":1},{"sampler":0,"source":2},{"sampler":0,"source":3}],"images":[{"mimeType":"image/png","name":"verdant_emissive","uri":"textures/verdant_emissive.png"},{"mimeType":"image/png","name":"verdant_normal","uri":"textures/verdant_normal.png"},{"mimeType":"image/png","name":"verdant_orm","uri":"textures/verdant_orm.png"},{"mimeType":"image/png","name":"verdant_albedo","uri":"textures/verdant_albedo.png"}],"accessors":[{"bufferView":0,"componentType":5126,"count":2040,"max":[0.5252582430839539,0.37309399247169495,0.47375941276550293],"min":[-0.5540421009063721,-0.01080000028014183,-0.5225809216499329],"type":"VEC3"},{"bufferView":1,"componentType":5126,"count":2040,"type":"VEC3"},{"bufferView":2,"componentType":5126,"count":2040,"type":"VEC2"},{"bufferView":3,"componentType":5123,"count":4362,"type":"SCALAR"}],"bufferViews":[{"buffer":0,"byteLength":24480,"byteOffset":0,"target":34962},{"buffer":0,"byteLength":24480,"byteOffset":24480,"target":34962},{"buffer":0,"byteLength":16320,"byteOffset":48960,"target":34962},{"buffer":0,"byteLength":8724,"byteOffset":65280,"target":34963}],"samplers":[{"magFilter":9729,"minFilter":9987}],"buffers":[{"byteLength":74004,"uri":"flowerbed.bin"}]}