{"asset":{"generator":"Crestbound propkit (Blender 5.1.2)","version":"2.0"},"extensionsUsed":["KHR_materials_emissive_strength"],"scene":0,"scenes":[{"name":"Scene","nodes":[0]}],"nodes":[{"mesh":0,"name":"mushroom_ring"}],"materials":[{"emissiveFactor":[1,1,1],"emissiveTexture":{"index":0},"extensions":{"KHR_materials_emissive_strength":{"emissiveStrength":2}},"name":"verdant_atlas","normalTexture":{"index":1},"occlusionTexture":{"index":2},"pbrMetallicRoughness":{"baseColorTexture":{"index":3},"metallicRoughnessTexture":{"index":2}},"doubleSided":false}],"meshes":[{"name":"mushroom_ring.001","primitives":[{"attributes":{"POSITION":0,"NORMAL":1,"TEXCOORD_0":2},"indices":3,"material":0}]}],"textures":[{"sampler":0,"source":0},{"sampler":0,"source":1},{"sampler":0,"source":2},{"sampler":0,"source":3}],"images":[{"mimeType":"image/png","name":"verdant_emissive","uri":"textures/verdant_emissive.png"},{"mimeType":"image/png","name":"verdant_normal","uri":"textures/verdant_normal.png"},{"mimeType":"image/png","name":"verdant_orm","uri":"textures/verdant_orm.png"},{"mimeType":"image/png","name":"verdant_albedo","uri":"textures/verdant_albedo.png"}],"accessors":[{"bufferView":0,"componentType":5126,"count":1710,"max":[0.46808212995529175,0.37708452343940735,0.44412997364997864],"min":[-0.3359830975532532,5.9089285059599206e-05,-0.45495733618736267],"type":"VEC3"},{"bufferView":1,"componentType":5126,"count":1710,"type":"VEC3"},{"bufferView":2,"componentType":5126,"count":1710,"type":"VEC2"},{"bufferView":3,"componentType":5123,"count":4500,"type":"SCALAR"}],"bufferViews":[{"buffer":0,"byteLength":20520,"byteOffset":0,"target":34962},{"buffer":0,"byteLength":20520,"byteOffset":20520,"target":34962},{"buffer":0,"byteLength":13680,"byteOffset":41040,"target":34962},{"buffer":0,"byteLength":9000,"byteOffset":54720,"target":34963}],"samplers":[{"magFilter":9729,"minFilter":9987}],"buffers":[{"byteLength":63720,"uri":"mushroom_ring.bin"}]}