{"asset":{"generator":"Crestbound propkit (Blender 5.1.2)","version":"2.0"},"extensionsUsed":["KHR_materials_emissive_strength"],"scene":0,"scenes":[{"name":"Scene","nodes":[2]}],"nodes":[{"mesh":0,"name":"oak_canopy_LOD1"},{"mesh":1,"name":"oak_trunk_climb_LOD1"},{"children":[0,1],"name":"oak_tree_climb_LOD1"}],"materials":[{"alphaMode":"MASK","doubleSided":true,"emissiveFactor":[1,1,1],"emissiveTexture":{"index":0},"extensions":{"KHR_materials_emissive_strength":{"emissiveStrength":2}},"name":"verdant_atlas_cutout","normalTexture":{"index":1},"occlusionTexture":{"index":2},"pbrMetallicRoughness":{"baseColorTexture":{"index":3},"metallicRoughnessTexture":{"index":2}},"alphaCutoff":0.5},{"emissiveFactor":[1,1,1],"emissiveTexture":{"index":4},"extensions":{"KHR_materials_emissive_strength":{"emissiveStrength":2}},"name":"verdant_atlas","normalTexture":{"index":5},"occlusionTexture":{"index":6},"pbrMetallicRoughness":{"baseColorTexture":{"index":7},"metallicRoughnessTexture":{"index":6}},"alphaMode":"MASK","alphaCutoff":0.5,"doubleSided":true}],"meshes":[{"name":"oak_canopy_LOD1.001","primitives":[{"attributes":{"POSITION":0,"NORMAL":1,"TEXCOORD_0":2},"indices":3,"material":0}]},{"name":"oak_trunk_climb_LOD1.001","primitives":[{"attributes":{"POSITION":4,"NORMAL":5,"TEXCOORD_0":6},"indices":7,"material":1}]}],"textures":[{"sampler":0,"source":0},{"sampler":0,"source":1},{"sampler":0,"source":2},{"sampler":0,"source":3},{"sampler":0,"source":0},{"sampler":0,"source":1},{"sampler":0,"source":2},{"sampler":0,"source":3}],"images":[{"mimeType":"image/png","name":"verdant_emissive","uri":"textures/verdant_emissive.png"},{"mimeType":"image/png","name":"verdant_normal","uri":"textures/verdant_normal.png"},{"mimeType":"image/png","name":"verdant_orm","uri":"textures/verdant_orm.png"},{"mimeType":"image/png","name":"verdant_albedo","uri":"textures/verdant_albedo.png"}],"accessors":[{"bufferView":0,"componentType":5126,"count":105,"max":[3.8317079544067383,10.44035530090332,3.9412097930908203],"min":[-3.8801894187927246,4.147194862365723,-4.552823066711426],"type":"VEC3"},{"bufferView":1,"componentType":5126,"count":105,"type":"VEC3"},{"bufferView":2,"componentType":5126,"count":105,"type":"VEC2"},{"bufferView":3,"componentType":5123,"count":153,"type":"SCALAR"},{"bufferView":4,"componentType":5126,"count":734,"max":[1.5356699228286743,7.023473262786865,1.5680732727050781],"min":[-1.6072444915771484,-0.0980079174041748,-1.5490480661392212],"type":"VEC3"},{"bufferView":5,"componentType":5126,"count":734,"type":"VEC3"},{"bufferView":6,"componentType":5126,"count":734,"type":"VEC2"},{"bufferView":7,"componentType":5123,"count":1398,"type":"SCALAR"}],"bufferViews":[{"buffer":0,"byteLength":1260,"byteOffset":0,"target":34962},{"buffer":0,"byteLength":1260,"byteOffset":1260,"target":34962},{"buffer":0,"byteLength":840,"byteOffset":2520,"target":34962},{"buffer":0,"byteLength":306,"byteOffset":3360,"target":34963},{"buffer":0,"byteLength":8808,"byteOffset":3668,"target":34962},{"buffer":0,"byteLength":8808,"byteOffset":12476,"target":34962},{"buffer":0,"byteLength":5872,"byteOffset":21284,"target":34962},{"buffer":0,"byteLength":2796,"byteOffset":27156,"target":34963}],"samplers":[{"magFilter":9729,"minFilter":9987}],"buffers":[{"byteLength":29952,"uri":"oak_tree_climb_lod1.bin"}]}