{"asset":{"generator":"Crestbound propkit (Blender 5.1.2)","version":"2.0"},"extensionsUsed":["KHR_materials_emissive_strength"],"scene":0,"scenes":[{"name":"Scene","nodes":[0]}],"nodes":[{"mesh":0,"name":"oak_trunk"}],"materials":[{"emissiveFactor":[1,1,1],"emissiveTexture":{"index":0},"extensions":{"KHR_materials_emissive_strength":{"emissiveStrength":2}},"name":"verdant_atlas","normalTexture":{"index":1},"occlusionTexture":{"index":2},"pbrMetallicRoughness":{"baseColorTexture":{"index":3},"metallicRoughnessTexture":{"index":2}},"doubleSided":false}],"meshes":[{"name":"oak_trunk","primitives":[{"attributes":{"POSITION":0,"NORMAL":1,"TEXCOORD_0":2},"indices":3,"material":0}]}],"textures":[{"sampler":0,"source":0},{"sampler":0,"source":1},{"sampler":0,"source":2},{"sampler":0,"source":3}],"images":[{"mimeType":"image/png","name":"verdant_emissive","uri":"textures/verdant_emissive.png"},{"mimeType":"image/png","name":"verdant_normal","uri":"textures/verdant_normal.png"},{"mimeType":"image/png","name":"verdant_orm","uri":"textures/verdant_orm.png"},{"mimeType":"image/png","name":"verdant_albedo","uri":"textures/verdant_albedo.png"}],"accessors":[{"bufferView":0,"componentType":5126,"count":725,"max":[1.553271770477295,7.02157735824585,1.578440546989441],"min":[-1.6085764169692993,-0.09383480250835419,-1.5504215955734253],"type":"VEC3"},{"bufferView":1,"componentType":5126,"count":725,"type":"VEC3"},{"bufferView":2,"componentType":5126,"count":725,"type":"VEC2"},{"bufferView":3,"componentType":5123,"count":2076,"type":"SCALAR"}],"bufferViews":[{"buffer":0,"byteLength":8700,"byteOffset":0,"target":34962},{"buffer":0,"byteLength":8700,"byteOffset":8700,"target":34962},{"buffer":0,"byteLength":5800,"byteOffset":17400,"target":34962},{"buffer":0,"byteLength":4152,"byteOffset":23200,"target":34963}],"samplers":[{"magFilter":9729,"minFilter":9987}],"buffers":[{"byteLength":27352,"uri":"oak_trunk.bin"}]}