{"asset":{"generator":"Crestbound propkit (Blender 5.1.2)","version":"2.0"},"extensionsUsed":["KHR_materials_emissive_strength"],"scene":0,"scenes":[{"name":"Scene","nodes":[0]}],"nodes":[{"mesh":0,"name":"oak_trunk_climb_LOD1"}],"materials":[{"emissiveFactor":[1,1,1],"emissiveTexture":{"index":0},"extensions":{"KHR_materials_emissive_strength":{"emissiveStrength":2}},"name":"verdant_atlas","normalTexture":{"index":1},"occlusionTexture":{"index":2},"pbrMetallicRoughness":{"baseColorTexture":{"index":3},"metallicRoughnessTexture":{"index":2}},"doubleSided":false}],"meshes":[{"name":"oak_trunk_climb_LOD1.001","primitives":[{"attributes":{"POSITION":0,"NORMAL":1,"TEXCOORD_0":2},"indices":3,"material":0}]}],"textures":[{"sampler":0,"source":0},{"sampler":0,"source":1},{"sampler":0,"source":2},{"sampler":0,"source":3}],"images":[{"mimeType":"image/png","name":"verdant_emissive","uri":"textures/verdant_emissive.png"},{"mimeType":"image/png","name":"verdant_normal","uri":"textures/verdant_normal.png"},{"mimeType":"image/png","name":"verdant_orm","uri":"textures/verdant_orm.png"},{"mimeType":"image/png","name":"verdant_albedo","uri":"textures/verdant_albedo.png"}],"accessors":[{"bufferView":0,"componentType":5126,"count":734,"max":[1.5356699228286743,7.023473262786865,1.5680732727050781],"min":[-1.6072444915771484,-0.0980079174041748,-1.5490480661392212],"type":"VEC3"},{"bufferView":1,"componentType":5126,"count":734,"type":"VEC3"},{"bufferView":2,"componentType":5126,"count":734,"type":"VEC2"},{"bufferView":3,"componentType":5123,"count":1398,"type":"SCALAR"}],"bufferViews":[{"buffer":0,"byteLength":8808,"byteOffset":0,"target":34962},{"buffer":0,"byteLength":8808,"byteOffset":8808,"target":34962},{"buffer":0,"byteLength":5872,"byteOffset":17616,"target":34962},{"buffer":0,"byteLength":2796,"byteOffset":23488,"target":34963}],"samplers":[{"magFilter":9729,"minFilter":9987}],"buffers":[{"byteLength":26284,"uri":"oak_trunk_climb_lod1.bin"}]}