{"asset":{"generator":"Crestbound propkit (Blender 5.1.2)","version":"2.0"},"extensionsUsed":["KHR_materials_emissive_strength"],"scene":0,"scenes":[{"name":"Scene","nodes":[0]}],"nodes":[{"mesh":0,"name":"pine_trunk"}],"materials":[{"emissiveFactor":[1,1,1],"emissiveTexture":{"index":0},"extensions":{"KHR_materials_emissive_strength":{"emissiveStrength":2}},"name":"verdant_atlas","normalTexture":{"index":1},"occlusionTexture":{"index":2},"pbrMetallicRoughness":{"baseColorTexture":{"index":3},"metallicRoughnessTexture":{"index":2}},"doubleSided":false}],"meshes":[{"name":"pine_trunk","primitives":[{"attributes":{"POSITION":0,"NORMAL":1,"TEXCOORD_0":2},"indices":3,"material":0}]}],"textures":[{"sampler":0,"source":0},{"sampler":0,"source":1},{"sampler":0,"source":2},{"sampler":0,"source":3}],"images":[{"mimeType":"image/png","name":"verdant_emissive","uri":"textures/verdant_emissive.png"},{"mimeType":"image/png","name":"verdant_normal","uri":"textures/verdant_normal.png"},{"mimeType":"image/png","name":"verdant_orm","uri":"textures/verdant_orm.png"},{"mimeType":"image/png","name":"verdant_albedo","uri":"textures/verdant_albedo.png"}],"accessors":[{"bufferView":0,"componentType":5126,"count":715,"max":[0.7522671818733215,9.199999809265137,0.717873752117157],"min":[-0.6700977087020874,-0.07331983745098114,-0.7152296304702759],"type":"VEC3"},{"bufferView":1,"componentType":5126,"count":715,"type":"VEC3"},{"bufferView":2,"componentType":5126,"count":715,"type":"VEC2"},{"bufferView":3,"componentType":5123,"count":1560,"type":"SCALAR"}],"bufferViews":[{"buffer":0,"byteLength":8580,"byteOffset":0,"target":34962},{"buffer":0,"byteLength":8580,"byteOffset":8580,"target":34962},{"buffer":0,"byteLength":5720,"byteOffset":17160,"target":34962},{"buffer":0,"byteLength":3120,"byteOffset":22880,"target":34963}],"samplers":[{"magFilter":9729,"minFilter":9987}],"buffers":[{"byteLength":26000,"uri":"pine_trunk.bin"}]}