{"asset":{"generator":"Crestbound propkit (Blender 5.1.2)","version":"2.0"},"extensionsUsed":["KHR_materials_emissive_strength"],"scene":0,"scenes":[{"name":"Scene","nodes":[0]}],"nodes":[{"mesh":0,"name":"pine_trunk_LOD1"}],"materials":[{"emissiveFactor":[1,1,1],"emissiveTexture":{"index":0},"extensions":{"KHR_materials_emissive_strength":{"emissiveStrength":2}},"name":"verdant_atlas","normalTexture":{"index":1},"occlusionTexture":{"index":2},"pbrMetallicRoughness":{"baseColorTexture":{"index":3},"metallicRoughnessTexture":{"index":2}},"doubleSided":false}],"meshes":[{"name":"pine_trunk_LOD1.001","primitives":[{"attributes":{"POSITION":0,"NORMAL":1,"TEXCOORD_0":2},"indices":3,"material":0}]}],"textures":[{"sampler":0,"source":0},{"sampler":0,"source":1},{"sampler":0,"source":2},{"sampler":0,"source":3}],"images":[{"mimeType":"image/png","name":"verdant_emissive","uri":"textures/verdant_emissive.png"},{"mimeType":"image/png","name":"verdant_normal","uri":"textures/verdant_normal.png"},{"mimeType":"image/png","name":"verdant_orm","uri":"textures/verdant_orm.png"},{"mimeType":"image/png","name":"verdant_albedo","uri":"textures/verdant_albedo.png"}],"accessors":[{"bufferView":0,"componentType":5126,"count":376,"max":[0.7520762085914612,9.199999809265137,0.7118692994117737],"min":[-0.6686733961105347,-0.06972779333591461,-0.7115457057952881],"type":"VEC3"},{"bufferView":1,"componentType":5126,"count":376,"type":"VEC3"},{"bufferView":2,"componentType":5126,"count":376,"type":"VEC2"},{"bufferView":3,"componentType":5123,"count":624,"type":"SCALAR"}],"bufferViews":[{"buffer":0,"byteLength":4512,"byteOffset":0,"target":34962},{"buffer":0,"byteLength":4512,"byteOffset":4512,"target":34962},{"buffer":0,"byteLength":3008,"byteOffset":9024,"target":34962},{"buffer":0,"byteLength":1248,"byteOffset":12032,"target":34963}],"samplers":[{"magFilter":9729,"minFilter":9987}],"buffers":[{"byteLength":13280,"uri":"pine_trunk_lod1.bin"}]}