{"asset":{"generator":"Crestbound propkit (Blender 5.1.2)","version":"2.0"},"extensionsUsed":["KHR_materials_emissive_strength"],"scene":0,"scenes":[{"name":"Scene","nodes":[0]}],"nodes":[{"mesh":0,"name":"rock_a"}],"materials":[{"emissiveFactor":[1,1,1],"emissiveTexture":{"index":0},"extensions":{"KHR_materials_emissive_strength":{"emissiveStrength":2}},"name":"verdant_atlas","normalTexture":{"index":1},"occlusionTexture":{"index":2},"pbrMetallicRoughness":{"baseColorTexture":{"index":3},"metallicRoughnessTexture":{"index":2}},"doubleSided":false}],"meshes":[{"name":"rock_a","primitives":[{"attributes":{"POSITION":0,"NORMAL":1,"TEXCOORD_0":2},"indices":3,"material":0}]}],"textures":[{"sampler":0,"source":0},{"sampler":0,"source":1},{"sampler":0,"source":2},{"sampler":0,"source":3}],"images":[{"mimeType":"image/png","name":"verdant_emissive","uri":"textures/verdant_emissive.png"},{"mimeType":"image/png","name":"verdant_normal","uri":"textures/verdant_normal.png"},{"mimeType":"image/png","name":"verdant_orm","uri":"textures/verdant_orm.png"},{"mimeType":"image/png","name":"verdant_albedo","uri":"textures/verdant_albedo.png"}],"accessors":[{"bufferView":0,"componentType":5126,"count":347,"max":[0.6995049118995667,0.6110682487487793,0.5339280962944031],"min":[-0.7520521283149719,-0.007474325597286224,-0.6814975142478943],"type":"VEC3"},{"bufferView":1,"componentType":5126,"count":347,"type":"VEC3"},{"bufferView":2,"componentType":5126,"count":347,"type":"VEC2"},{"bufferView":3,"componentType":5123,"count":360,"type":"SCALAR"}],"bufferViews":[{"buffer":0,"byteLength":4164,"byteOffset":0,"target":34962},{"buffer":0,"byteLength":4164,"byteOffset":4164,"target":34962},{"buffer":0,"byteLength":2776,"byteOffset":8328,"target":34962},{"buffer":0,"byteLength":720,"byteOffset":11104,"target":34963}],"samplers":[{"magFilter":9729,"minFilter":9987}],"buffers":[{"byteLength":11824,"uri":"rock_a.bin"}]}