{"asset":{"generator":"Crestbound propkit (Blender 5.1.2)","version":"2.0"},"extensionsUsed":["KHR_materials_emissive_strength"],"scene":0,"scenes":[{"name":"Scene","nodes":[0]}],"nodes":[{"mesh":0,"name":"rock_c_LOD1"}],"materials":[{"emissiveFactor":[1,1,1],"emissiveTexture":{"index":0},"extensions":{"KHR_materials_emissive_strength":{"emissiveStrength":2}},"name":"verdant_atlas","normalTexture":{"index":1},"occlusionTexture":{"index":2},"pbrMetallicRoughness":{"baseColorTexture":{"index":3},"metallicRoughnessTexture":{"index":2}},"doubleSided":false}],"meshes":[{"name":"rock_c_LOD1.001","primitives":[{"attributes":{"POSITION":0,"NORMAL":1,"TEXCOORD_0":2},"indices":3,"material":0}]}],"textures":[{"sampler":0,"source":0},{"sampler":0,"source":1},{"sampler":0,"source":2},{"sampler":0,"source":3}],"images":[{"mimeType":"image/png","name":"verdant_emissive","uri":"textures/verdant_emissive.png"},{"mimeType":"image/png","name":"verdant_normal","uri":"textures/verdant_normal.png"},{"mimeType":"image/png","name":"verdant_orm","uri":"textures/verdant_orm.png"},{"mimeType":"image/png","name":"verdant_albedo","uri":"textures/verdant_albedo.png"}],"accessors":[{"bufferView":0,"componentType":5126,"count":168,"max":[0.6945292353630066,0.3085199296474457,0.47036391496658325],"min":[-0.6529709696769714,-0.0080077163875103,-0.5716904997825623],"type":"VEC3"},{"bufferView":1,"componentType":5126,"count":168,"type":"VEC3"},{"bufferView":2,"componentType":5126,"count":168,"type":"VEC2"},{"bufferView":3,"componentType":5123,"count":168,"type":"SCALAR"}],"bufferViews":[{"buffer":0,"byteLength":2016,"byteOffset":0,"target":34962},{"buffer":0,"byteLength":2016,"byteOffset":2016,"target":34962},{"buffer":0,"byteLength":1344,"byteOffset":4032,"target":34962},{"buffer":0,"byteLength":336,"byteOffset":5376,"target":34963}],"samplers":[{"magFilter":9729,"minFilter":9987}],"buffers":[{"byteLength":5712,"uri":"rock_c_lod1.bin"}]}