{"asset":{"generator":"Crestbound propkit (Blender 5.1.2)","version":"2.0"},"extensionsUsed":["KHR_materials_emissive_strength"],"scene":0,"scenes":[{"name":"Scene","nodes":[0]}],"nodes":[{"mesh":0,"name":"windmill_sails"}],"animations":[{"channels":[{"sampler":0,"target":{"node":0,"path":"rotation"}}],"name":"spin","samplers":[{"input":4,"interpolation":"LINEAR","output":5}]}],"materials":[{"emissiveFactor":[1,1,1],"emissiveTexture":{"index":0},"extensions":{"KHR_materials_emissive_strength":{"emissiveStrength":2}},"name":"verdant_atlas","normalTexture":{"index":1},"occlusionTexture":{"index":2},"pbrMetallicRoughness":{"baseColorTexture":{"index":3},"metallicRoughnessTexture":{"index":2}},"doubleSided":false}],"meshes":[{"name":"windmill_sails","primitives":[{"attributes":{"POSITION":0,"NORMAL":1,"TEXCOORD_0":2},"indices":3,"material":0}]}],"textures":[{"sampler":0,"source":0},{"sampler":0,"source":1},{"sampler":0,"source":2},{"sampler":0,"source":3}],"images":[{"mimeType":"image/png","name":"verdant_emissive","uri":"textures/verdant_emissive.png"},{"mimeType":"image/png","name":"verdant_normal","uri":"textures/verdant_normal.png"},{"mimeType":"image/png","name":"verdant_orm","uri":"textures/verdant_orm.png"},{"mimeType":"image/png","name":"verdant_albedo","uri":"textures/verdant_albedo.png"}],"accessors":[{"bufferView":0,"componentType":5126,"count":1730,"max":[7,7,0.30000004172325134],"min":[-7,-7,-0.41999998688697815],"type":"VEC3"},{"bufferView":1,"componentType":5126,"count":1730,"type":"VEC3"},{"bufferView":2,"componentType":5126,"count":1730,"type":"VEC2"},{"bufferView":3,"componentType":5123,"count":3408,"type":"SCALAR"},{"bufferView":4,"componentType":5126,"count":289,"max":[12.041666666666666],"min":[0.041666666666666664],"type":"SCALAR"},{"bufferView":5,"componentType":5126,"count":289,"type":"VEC4"}],"bufferViews":[{"buffer":0,"byteLength":20760,"byteOffset":0,"target":34962},{"buffer":0,"byteLength":20760,"byteOffset":20760,"target":34962},{"buffer":0,"byteLength":13840,"byteOffset":41520,"target":34962},{"buffer":0,"byteLength":6816,"byteOffset":55360,"target":34963},{"buffer":0,"byteLength":1156,"byteOffset":62176},{"buffer":0,"byteLength":4624,"byteOffset":63332}],"samplers":[{"magFilter":9729,"minFilter":9987}],"buffers":[{"byteLength":67956,"uri":"windmill_sails.bin"}]}