{"asset":{"generator":"Crestbound propkit (Blender 5.1.2)","version":"2.0"},"extensionsUsed":["KHR_materials_emissive_strength"],"scene":0,"scenes":[{"name":"Scene","nodes":[0]}],"nodes":[{"mesh":0,"name":"windmill_sails_LOD1"}],"materials":[{"emissiveFactor":[1,1,1],"emissiveTexture":{"index":0},"extensions":{"KHR_materials_emissive_strength":{"emissiveStrength":2}},"name":"verdant_atlas","normalTexture":{"index":1},"occlusionTexture":{"index":2},"pbrMetallicRoughness":{"baseColorTexture":{"index":3},"metallicRoughnessTexture":{"index":2}},"doubleSided":false}],"meshes":[{"name":"windmill_sails_LOD1.001","primitives":[{"attributes":{"POSITION":0,"NORMAL":1,"TEXCOORD_0":2},"indices":3,"material":0}]}],"textures":[{"sampler":0,"source":0},{"sampler":0,"source":1},{"sampler":0,"source":2},{"sampler":0,"source":3}],"images":[{"mimeType":"image/png","name":"verdant_emissive","uri":"textures/verdant_emissive.png"},{"mimeType":"image/png","name":"verdant_normal","uri":"textures/verdant_normal.png"},{"mimeType":"image/png","name":"verdant_orm","uri":"textures/verdant_orm.png"},{"mimeType":"image/png","name":"verdant_albedo","uri":"textures/verdant_albedo.png"}],"accessors":[{"bufferView":0,"componentType":5126,"count":773,"max":[6.9942307472229,6.9942307472229,0.30029207468032837],"min":[-6.9942307472229,-6.9942307472229,-0.41846534609794617],"type":"VEC3"},{"bufferView":1,"componentType":5126,"count":773,"type":"VEC3"},{"bufferView":2,"componentType":5126,"count":773,"type":"VEC2"},{"bufferView":3,"componentType":5123,"count":1362,"type":"SCALAR"}],"bufferViews":[{"buffer":0,"byteLength":9276,"byteOffset":0,"target":34962},{"buffer":0,"byteLength":9276,"byteOffset":9276,"target":34962},{"buffer":0,"byteLength":6184,"byteOffset":18552,"target":34962},{"buffer":0,"byteLength":2724,"byteOffset":24736,"target":34963}],"samplers":[{"magFilter":9729,"minFilter":9987}],"buffers":[{"byteLength":27460,"uri":"windmill_sails_lod1.bin"}]}