{"asset":{"generator":"Crestbound propkit (Blender 5.1.2)","version":"2.0"},"extensionsUsed":["KHR_materials_emissive_strength"],"scene":0,"scenes":[{"name":"Scene","nodes":[0]}],"nodes":[{"mesh":0,"name":"cottage_roof_module"}],"materials":[{"emissiveFactor":[1,1,1],"emissiveTexture":{"index":0},"extensions":{"KHR_materials_emissive_strength":{"emissiveStrength":3}},"name":"rime_atlas","normalTexture":{"index":1},"occlusionTexture":{"index":2},"pbrMetallicRoughness":{"baseColorTexture":{"index":3},"metallicRoughnessTexture":{"index":2}},"doubleSided":false}],"meshes":[{"name":"cottage_roof_module","primitives":[{"attributes":{"POSITION":0,"NORMAL":1,"TEXCOORD_0":2},"indices":3,"material":0}]}],"textures":[{"sampler":0,"source":0},{"sampler":0,"source":1},{"sampler":0,"source":2},{"sampler":0,"source":3}],"images":[{"mimeType":"image/png","name":"rime_emissive","uri":"textures/rime_emissive.png"},{"mimeType":"image/png","name":"rime_normal","uri":"textures/rime_normal.png"},{"mimeType":"image/png","name":"rime_orm","uri":"textures/rime_orm.png"},{"mimeType":"image/png","name":"rime_albedo","uri":"textures/rime_albedo.png"}],"accessors":[{"bufferView":0,"componentType":5126,"count":656,"max":[1.5499999523162842,1.4494357109069824,0.05000000074505806],"min":[-1.5499999523162842,-0.15000000596046448,-1.870068073272705],"type":"VEC3"},{"bufferView":1,"componentType":5126,"count":656,"type":"VEC3"},{"bufferView":2,"componentType":5126,"count":656,"type":"VEC2"},{"bufferView":3,"componentType":5123,"count":1752,"type":"SCALAR"}],"bufferViews":[{"buffer":0,"byteLength":7872,"byteOffset":0,"target":34962},{"buffer":0,"byteLength":7872,"byteOffset":7872,"target":34962},{"buffer":0,"byteLength":5248,"byteOffset":15744,"target":34962},{"buffer":0,"byteLength":3504,"byteOffset":20992,"target":34963}],"samplers":[{"magFilter":9729,"minFilter":9987}],"buffers":[{"byteLength":24496,"uri":"cottage_roof_module.bin"}]}