{"asset":{"generator":"Crestbound propkit (Blender 5.1.2)","version":"2.0"},"extensionsUsed":["KHR_materials_emissive_strength"],"scene":0,"scenes":[{"name":"Scene","nodes":[0]}],"nodes":[{"mesh":0,"name":"ice_crystal_LOD1"}],"materials":[{"emissiveFactor":[1,1,1],"emissiveTexture":{"index":0},"extensions":{"KHR_materials_emissive_strength":{"emissiveStrength":3}},"name":"rime_atlas","normalTexture":{"index":1},"occlusionTexture":{"index":2},"pbrMetallicRoughness":{"baseColorTexture":{"index":3},"metallicRoughnessTexture":{"index":2}},"doubleSided":false}],"meshes":[{"name":"ice_crystal_LOD1.001","primitives":[{"attributes":{"POSITION":0,"NORMAL":1,"TEXCOORD_0":2},"indices":3,"material":0}]}],"textures":[{"sampler":0,"source":0},{"sampler":0,"source":1},{"sampler":0,"source":2},{"sampler":0,"source":3}],"images":[{"mimeType":"image/png","name":"rime_emissive","uri":"textures/rime_emissive.png"},{"mimeType":"image/png","name":"rime_normal","uri":"textures/rime_normal.png"},{"mimeType":"image/png","name":"rime_orm","uri":"textures/rime_orm.png"},{"mimeType":"image/png","name":"rime_albedo","uri":"textures/rime_albedo.png"}],"accessors":[{"bufferView":0,"componentType":5126,"count":282,"max":[0.38946202397346497,1.2776511907577515,0.4158693552017212],"min":[-0.3573050796985626,0.024186333641409874,-0.3768465518951416],"type":"VEC3"},{"bufferView":1,"componentType":5126,"count":282,"type":"VEC3"},{"bufferView":2,"componentType":5126,"count":282,"type":"VEC2"},{"bufferView":3,"componentType":5123,"count":282,"type":"SCALAR"}],"bufferViews":[{"buffer":0,"byteLength":3384,"byteOffset":0,"target":34962},{"buffer":0,"byteLength":3384,"byteOffset":3384,"target":34962},{"buffer":0,"byteLength":2256,"byteOffset":6768,"target":34962},{"buffer":0,"byteLength":564,"byteOffset":9024,"target":34963}],"samplers":[{"magFilter":9729,"minFilter":9987}],"buffers":[{"byteLength":9588,"uri":"ice_crystal_lod1.bin"}]}