{"asset":{"generator":"Crestbound propkit (Blender 5.1.2)","version":"2.0"},"extensionsUsed":["KHR_materials_emissive_strength"],"scene":0,"scenes":[{"name":"Scene","nodes":[0]}],"nodes":[{"mesh":0,"name":"icicle_cluster_LOD1"}],"materials":[{"emissiveFactor":[1,1,1],"emissiveTexture":{"index":0},"extensions":{"KHR_materials_emissive_strength":{"emissiveStrength":3}},"name":"rime_atlas","normalTexture":{"index":1},"occlusionTexture":{"index":2},"pbrMetallicRoughness":{"baseColorTexture":{"index":3},"metallicRoughnessTexture":{"index":2}},"doubleSided":false}],"meshes":[{"name":"icicle_cluster_LOD1.001","primitives":[{"attributes":{"POSITION":0,"NORMAL":1,"TEXCOORD_0":2},"indices":3,"material":0}]}],"textures":[{"sampler":0,"source":0},{"sampler":0,"source":1},{"sampler":0,"source":2},{"sampler":0,"source":3}],"images":[{"mimeType":"image/png","name":"rime_emissive","uri":"textures/rime_emissive.png"},{"mimeType":"image/png","name":"rime_normal","uri":"textures/rime_normal.png"},{"mimeType":"image/png","name":"rime_orm","uri":"textures/rime_orm.png"},{"mimeType":"image/png","name":"rime_albedo","uri":"textures/rime_albedo.png"}],"accessors":[{"bufferView":0,"componentType":5126,"count":213,"max":[0.32444527745246887,0.061003439128398895,0.34047478437423706],"min":[-0.3356330692768097,-0.716668963432312,-0.334471732378006],"type":"VEC3"},{"bufferView":1,"componentType":5126,"count":213,"type":"VEC3"},{"bufferView":2,"componentType":5126,"count":213,"type":"VEC2"},{"bufferView":3,"componentType":5123,"count":372,"type":"SCALAR"}],"bufferViews":[{"buffer":0,"byteLength":2556,"byteOffset":0,"target":34962},{"buffer":0,"byteLength":2556,"byteOffset":2556,"target":34962},{"buffer":0,"byteLength":1704,"byteOffset":5112,"target":34962},{"buffer":0,"byteLength":744,"byteOffset":6816,"target":34963}],"samplers":[{"magFilter":9729,"minFilter":9987}],"buffers":[{"byteLength":7560,"uri":"icicle_cluster_lod1.bin"}]}