{"asset":{"generator":"Crestbound propkit (Blender 5.1.2)","version":"2.0"},"extensionsUsed":["KHR_materials_emissive_strength"],"scene":0,"scenes":[{"name":"Scene","nodes":[0]}],"nodes":[{"mesh":0,"name":"icicle_fringe"}],"materials":[{"emissiveFactor":[1,1,1],"emissiveTexture":{"index":0},"extensions":{"KHR_materials_emissive_strength":{"emissiveStrength":3}},"name":"rime_atlas","normalTexture":{"index":1},"occlusionTexture":{"index":2},"pbrMetallicRoughness":{"baseColorTexture":{"index":3},"metallicRoughnessTexture":{"index":2}},"doubleSided":false}],"meshes":[{"name":"icicle_fringe","primitives":[{"attributes":{"POSITION":0,"NORMAL":1,"TEXCOORD_0":2},"indices":3,"material":0}]}],"textures":[{"sampler":0,"source":0},{"sampler":0,"source":1},{"sampler":0,"source":2},{"sampler":0,"source":3}],"images":[{"mimeType":"image/png","name":"rime_emissive","uri":"textures/rime_emissive.png"},{"mimeType":"image/png","name":"rime_normal","uri":"textures/rime_normal.png"},{"mimeType":"image/png","name":"rime_orm","uri":"textures/rime_orm.png"},{"mimeType":"image/png","name":"rime_albedo","uri":"textures/rime_albedo.png"}],"accessors":[{"bufferView":0,"componentType":5126,"count":609,"max":[0.8799999952316284,0,0.09312018007040024],"min":[-0.8799999952316284,-0.8474549055099487,-0.10578431189060211],"type":"VEC3"},{"bufferView":1,"componentType":5126,"count":609,"type":"VEC3"},{"bufferView":2,"componentType":5126,"count":609,"type":"VEC2"},{"bufferView":3,"componentType":5123,"count":1644,"type":"SCALAR"}],"bufferViews":[{"buffer":0,"byteLength":7308,"byteOffset":0,"target":34962},{"buffer":0,"byteLength":7308,"byteOffset":7308,"target":34962},{"buffer":0,"byteLength":4872,"byteOffset":14616,"target":34962},{"buffer":0,"byteLength":3288,"byteOffset":19488,"target":34963}],"samplers":[{"magFilter":9729,"minFilter":9987}],"buffers":[{"byteLength":22776,"uri":"icicle_fringe.bin"}]}