{"asset":{"generator":"Crestbound propkit (Blender 5.1.2)","version":"2.0"},"extensionsUsed":["KHR_materials_emissive_strength"],"scene":0,"scenes":[{"name":"Scene","nodes":[0]}],"nodes":[{"mesh":0,"name":"pine_snow_trunk"}],"materials":[{"emissiveFactor":[1,1,1],"emissiveTexture":{"index":0},"extensions":{"KHR_materials_emissive_strength":{"emissiveStrength":3}},"name":"rime_atlas","normalTexture":{"index":1},"occlusionTexture":{"index":2},"pbrMetallicRoughness":{"baseColorTexture":{"index":3},"metallicRoughnessTexture":{"index":2}},"doubleSided":false}],"meshes":[{"name":"pine_snow_trunk","primitives":[{"attributes":{"POSITION":0,"NORMAL":1,"TEXCOORD_0":2},"indices":3,"material":0}]}],"textures":[{"sampler":0,"source":0},{"sampler":0,"source":1},{"sampler":0,"source":2},{"sampler":0,"source":3}],"images":[{"mimeType":"image/png","name":"rime_emissive","uri":"textures/rime_emissive.png"},{"mimeType":"image/png","name":"rime_normal","uri":"textures/rime_normal.png"},{"mimeType":"image/png","name":"rime_orm","uri":"textures/rime_orm.png"},{"mimeType":"image/png","name":"rime_albedo","uri":"textures/rime_albedo.png"}],"accessors":[{"bufferView":0,"componentType":5126,"count":384,"max":[0.7522671818733215,9.199999809265137,0.665921688079834],"min":[-0.6587533950805664,-0.07331983745098114,-0.6428959369659424],"type":"VEC3"},{"bufferView":1,"componentType":5126,"count":384,"type":"VEC3"},{"bufferView":2,"componentType":5126,"count":384,"type":"VEC2"},{"bufferView":3,"componentType":5123,"count":1044,"type":"SCALAR"}],"bufferViews":[{"buffer":0,"byteLength":4608,"byteOffset":0,"target":34962},{"buffer":0,"byteLength":4608,"byteOffset":4608,"target":34962},{"buffer":0,"byteLength":3072,"byteOffset":9216,"target":34962},{"buffer":0,"byteLength":2088,"byteOffset":12288,"target":34963}],"samplers":[{"magFilter":9729,"minFilter":9987}],"buffers":[{"byteLength":14376,"uri":"pine_snow_trunk.bin"}]}