{"asset":{"generator":"Crestbound propkit (Blender 5.1.2)","version":"2.0"},"extensionsUsed":["KHR_materials_emissive_strength"],"scene":0,"scenes":[{"name":"Scene","nodes":[0]}],"nodes":[{"mesh":0,"name":"pine_snow_canopy"}],"materials":[{"emissiveFactor":[1,1,1],"emissiveTexture":{"index":0},"extensions":{"KHR_materials_emissive_strength":{"emissiveStrength":3}},"name":"rime_atlas","normalTexture":{"index":1},"occlusionTexture":{"index":2},"pbrMetallicRoughness":{"baseColorTexture":{"index":3},"metallicRoughnessTexture":{"index":2}},"doubleSided":false}],"meshes":[{"name":"pine_snow_canopy","primitives":[{"attributes":{"POSITION":0,"NORMAL":1,"TEXCOORD_0":2},"indices":3,"material":0}]}],"textures":[{"sampler":0,"source":0},{"sampler":0,"source":1},{"sampler":0,"source":2},{"sampler":0,"source":3}],"images":[{"mimeType":"image/png","name":"rime_emissive","uri":"textures/rime_emissive.png"},{"mimeType":"image/png","name":"rime_normal","uri":"textures/rime_normal.png"},{"mimeType":"image/png","name":"rime_orm","uri":"textures/rime_orm.png"},{"mimeType":"image/png","name":"rime_albedo","uri":"textures/rime_albedo.png"}],"accessors":[{"bufferView":0,"componentType":5126,"count":936,"max":[2.299999952316284,9.949999809265137,2.2423341274261475],"min":[-2.07222843170166,2.416552782058716,-2.2423341274261475],"type":"VEC3"},{"bufferView":1,"componentType":5126,"count":936,"type":"VEC3"},{"bufferView":2,"componentType":5126,"count":936,"type":"VEC2"},{"bufferView":3,"componentType":5123,"count":2268,"type":"SCALAR"}],"bufferViews":[{"buffer":0,"byteLength":11232,"byteOffset":0,"target":34962},{"buffer":0,"byteLength":11232,"byteOffset":11232,"target":34962},{"buffer":0,"byteLength":7488,"byteOffset":22464,"target":34962},{"buffer":0,"byteLength":4536,"byteOffset":29952,"target":34963}],"samplers":[{"magFilter":9729,"minFilter":9987}],"buffers":[{"byteLength":34488,"uri":"pine_snow_canopy.bin"}]}