{"asset":{"generator":"Crestbound propkit (Blender 5.1.2)","version":"2.0"},"extensionsUsed":["KHR_materials_emissive_strength"],"scene":0,"scenes":[{"name":"Scene","nodes":[0]}],"nodes":[{"mesh":0,"name":"snow_rock"}],"materials":[{"emissiveFactor":[1,1,1],"emissiveTexture":{"index":0},"extensions":{"KHR_materials_emissive_strength":{"emissiveStrength":3}},"name":"rime_atlas","normalTexture":{"index":1},"occlusionTexture":{"index":2},"pbrMetallicRoughness":{"baseColorTexture":{"index":3},"metallicRoughnessTexture":{"index":2}},"doubleSided":false}],"meshes":[{"name":"snow_rock","primitives":[{"attributes":{"POSITION":0,"NORMAL":1,"TEXCOORD_0":2},"indices":3,"material":0}]}],"textures":[{"sampler":0,"source":0},{"sampler":0,"source":1},{"sampler":0,"source":2},{"sampler":0,"source":3}],"images":[{"mimeType":"image/png","name":"rime_emissive","uri":"textures/rime_emissive.png"},{"mimeType":"image/png","name":"rime_normal","uri":"textures/rime_normal.png"},{"mimeType":"image/png","name":"rime_orm","uri":"textures/rime_orm.png"},{"mimeType":"image/png","name":"rime_albedo","uri":"textures/rime_albedo.png"}],"accessors":[{"bufferView":0,"componentType":5126,"count":364,"max":[0.8819796442985535,0.7914774417877197,0.7111670970916748],"min":[-0.8194980621337891,-0.020000003278255463,-0.5797325968742371],"type":"VEC3"},{"bufferView":1,"componentType":5126,"count":364,"type":"VEC3"},{"bufferView":2,"componentType":5126,"count":364,"type":"VEC2"},{"bufferView":3,"componentType":5123,"count":540,"type":"SCALAR"}],"bufferViews":[{"buffer":0,"byteLength":4368,"byteOffset":0,"target":34962},{"buffer":0,"byteLength":4368,"byteOffset":4368,"target":34962},{"buffer":0,"byteLength":2912,"byteOffset":8736,"target":34962},{"buffer":0,"byteLength":1080,"byteOffset":11648,"target":34963}],"samplers":[{"magFilter":9729,"minFilter":9987}],"buffers":[{"byteLength":12728,"uri":"snow_rock.bin"}]}