{"asset":{"generator":"Crestbound propkit (Blender 5.1.2)","version":"2.0"},"extensionsUsed":["KHR_materials_emissive_strength"],"scene":0,"scenes":[{"name":"Scene","nodes":[0]}],"nodes":[{"mesh":0,"name":"snowdrift"}],"materials":[{"emissiveFactor":[1,1,1],"emissiveTexture":{"index":0},"extensions":{"KHR_materials_emissive_strength":{"emissiveStrength":3}},"name":"rime_atlas","normalTexture":{"index":1},"occlusionTexture":{"index":2},"pbrMetallicRoughness":{"baseColorTexture":{"index":3},"metallicRoughnessTexture":{"index":2}},"doubleSided":false}],"meshes":[{"name":"snowdrift","primitives":[{"attributes":{"POSITION":0,"NORMAL":1,"TEXCOORD_0":2},"indices":3,"material":0}]}],"textures":[{"sampler":0,"source":0},{"sampler":0,"source":1},{"sampler":0,"source":2},{"sampler":0,"source":3}],"images":[{"mimeType":"image/png","name":"rime_emissive","uri":"textures/rime_emissive.png"},{"mimeType":"image/png","name":"rime_normal","uri":"textures/rime_normal.png"},{"mimeType":"image/png","name":"rime_orm","uri":"textures/rime_orm.png"},{"mimeType":"image/png","name":"rime_albedo","uri":"textures/rime_albedo.png"}],"accessors":[{"bufferView":0,"componentType":5126,"count":775,"max":[0.9649534821510315,0.2665090262889862,0.7582210302352905],"min":[-0.9447473883628845,-0.002376001328229904,-1.062738060951233],"type":"VEC3"},{"bufferView":1,"componentType":5126,"count":775,"type":"VEC3"},{"bufferView":2,"componentType":5126,"count":775,"type":"VEC2"},{"bufferView":3,"componentType":5123,"count":3120,"type":"SCALAR"}],"bufferViews":[{"buffer":0,"byteLength":9300,"byteOffset":0,"target":34962},{"buffer":0,"byteLength":9300,"byteOffset":9300,"target":34962},{"buffer":0,"byteLength":6200,"byteOffset":18600,"target":34962},{"buffer":0,"byteLength":6240,"byteOffset":24800,"target":34963}],"samplers":[{"magFilter":9729,"minFilter":9987}],"buffers":[{"byteLength":31040,"uri":"snowdrift.bin"}]}