{"asset":{"generator":"Crestbound propkit (Blender 5.1.2)","version":"2.0"},"extensionsUsed":["KHR_materials_emissive_strength"],"scene":0,"scenes":[{"name":"Scene","nodes":[0]}],"nodes":[{"mesh":0,"name":"cloud_island_b"}],"materials":[{"emissiveFactor":[1,1,1],"emissiveTexture":{"index":0},"extensions":{"KHR_materials_emissive_strength":{"emissiveStrength":3}},"name":"azure_atlas","normalTexture":{"index":1},"occlusionTexture":{"index":2},"pbrMetallicRoughness":{"baseColorTexture":{"index":3},"metallicRoughnessTexture":{"index":2}},"doubleSided":false}],"meshes":[{"name":"cloud_island_b","primitives":[{"attributes":{"POSITION":0,"NORMAL":1,"TEXCOORD_0":2},"indices":3,"material":0}]}],"textures":[{"sampler":0,"source":0},{"sampler":0,"source":1},{"sampler":0,"source":2},{"sampler":0,"source":3}],"images":[{"mimeType":"image/png","name":"azure_emissive","uri":"textures/azure_emissive.png"},{"mimeType":"image/png","name":"azure_normal","uri":"textures/azure_normal.png"},{"mimeType":"image/png","name":"azure_orm","uri":"textures/azure_orm.png"},{"mimeType":"image/png","name":"azure_albedo","uri":"textures/azure_albedo.png"}],"accessors":[{"bufferView":0,"componentType":5126,"count":340,"max":[1.5470752716064453,0.9342875480651855,1.4474432468414307],"min":[-1.5625598430633545,-0.8220758438110352,-1.3450438976287842],"type":"VEC3"},{"bufferView":1,"componentType":5126,"count":340,"type":"VEC3"},{"bufferView":2,"componentType":5126,"count":340,"type":"VEC2"},{"bufferView":3,"componentType":5123,"count":720,"type":"SCALAR"}],"bufferViews":[{"buffer":0,"byteLength":4080,"byteOffset":0,"target":34962},{"buffer":0,"byteLength":4080,"byteOffset":4080,"target":34962},{"buffer":0,"byteLength":2720,"byteOffset":8160,"target":34962},{"buffer":0,"byteLength":1440,"byteOffset":10880,"target":34963}],"samplers":[{"magFilter":9729,"minFilter":9987}],"buffers":[{"byteLength":12320,"uri":"cloud_island_b.bin"}]}