{"asset":{"generator":"Crestbound propkit (Blender 5.1.2)","version":"2.0"},"extensionsUsed":["KHR_materials_emissive_strength"],"scene":0,"scenes":[{"name":"Scene","nodes":[0]}],"nodes":[{"mesh":0,"name":"coral_fan_a_LOD1"}],"materials":[{"alphaMode":"MASK","doubleSided":true,"emissiveFactor":[1,1,1],"emissiveTexture":{"index":0},"extensions":{"KHR_materials_emissive_strength":{"emissiveStrength":3}},"name":"azure_atlas_cutout","normalTexture":{"index":1},"occlusionTexture":{"index":2},"pbrMetallicRoughness":{"baseColorTexture":{"index":3},"metallicRoughnessTexture":{"index":2}},"alphaCutoff":0.5}],"meshes":[{"name":"coral_fan_a_LOD1.001","primitives":[{"attributes":{"POSITION":0,"NORMAL":1,"TEXCOORD_0":2},"indices":3,"material":0}]}],"textures":[{"sampler":0,"source":0},{"sampler":0,"source":1},{"sampler":0,"source":2},{"sampler":0,"source":3}],"images":[{"mimeType":"image/png","name":"azure_emissive","uri":"textures/azure_emissive.png"},{"mimeType":"image/png","name":"azure_normal","uri":"textures/azure_normal.png"},{"mimeType":"image/png","name":"azure_orm","uri":"textures/azure_orm.png"},{"mimeType":"image/png","name":"azure_albedo","uri":"textures/azure_albedo.png"}],"accessors":[{"bufferView":0,"componentType":5126,"count":86,"max":[0.6499999761581421,1.2999999523162842,0.35810017585754395],"min":[-0.6499999761581421,-0.0006872266530990601,-0.558100163936615],"type":"VEC3"},{"bufferView":1,"componentType":5126,"count":86,"type":"VEC3"},{"bufferView":2,"componentType":5126,"count":86,"type":"VEC2"},{"bufferView":3,"componentType":5123,"count":99,"type":"SCALAR"}],"bufferViews":[{"buffer":0,"byteLength":1032,"byteOffset":0,"target":34962},{"buffer":0,"byteLength":1032,"byteOffset":1032,"target":34962},{"buffer":0,"byteLength":688,"byteOffset":2064,"target":34962},{"buffer":0,"byteLength":198,"byteOffset":2752,"target":34963}],"samplers":[{"magFilter":9729,"minFilter":9987}],"buffers":[{"byteLength":2952,"uri":"coral_fan_a_lod1.bin"}]}