{"asset":{"generator":"Crestbound propkit (Blender 5.1.2)","version":"2.0"},"extensionsUsed":["KHR_materials_emissive_strength"],"scene":0,"scenes":[{"name":"Scene","nodes":[0]}],"nodes":[{"mesh":0,"name":"coral_fan_b"}],"materials":[{"emissiveFactor":[1,1,1],"emissiveTexture":{"index":0},"extensions":{"KHR_materials_emissive_strength":{"emissiveStrength":3}},"name":"azure_atlas","normalTexture":{"index":1},"occlusionTexture":{"index":2},"pbrMetallicRoughness":{"baseColorTexture":{"index":3},"metallicRoughnessTexture":{"index":2}},"doubleSided":false}],"meshes":[{"name":"coral_fan_b","primitives":[{"attributes":{"POSITION":0,"NORMAL":1,"TEXCOORD_0":2},"indices":3,"material":0}]}],"textures":[{"sampler":0,"source":0},{"sampler":0,"source":1},{"sampler":0,"source":2},{"sampler":0,"source":3}],"images":[{"mimeType":"image/png","name":"azure_emissive","uri":"textures/azure_emissive.png"},{"mimeType":"image/png","name":"azure_normal","uri":"textures/azure_normal.png"},{"mimeType":"image/png","name":"azure_orm","uri":"textures/azure_orm.png"},{"mimeType":"image/png","name":"azure_albedo","uri":"textures/azure_albedo.png"}],"accessors":[{"bufferView":0,"componentType":5126,"count":1350,"max":[0.3198506832122803,1.16205894947052,0.31343069672584534],"min":[-0.6116117238998413,-0.005000002682209015,-0.30013155937194824],"type":"VEC3"},{"bufferView":1,"componentType":5126,"count":1350,"type":"VEC3"},{"bufferView":2,"componentType":5126,"count":1350,"type":"VEC2"},{"bufferView":3,"componentType":5123,"count":2832,"type":"SCALAR"}],"bufferViews":[{"buffer":0,"byteLength":16200,"byteOffset":0,"target":34962},{"buffer":0,"byteLength":16200,"byteOffset":16200,"target":34962},{"buffer":0,"byteLength":10800,"byteOffset":32400,"target":34962},{"buffer":0,"byteLength":5664,"byteOffset":43200,"target":34963}],"samplers":[{"magFilter":9729,"minFilter":9987}],"buffers":[{"byteLength":48864,"uri":"coral_fan_b.bin"}]}