{"asset":{"generator":"Crestbound propkit (Blender 5.1.2)","version":"2.0"},"extensionsUsed":["KHR_materials_emissive_strength"],"scene":0,"scenes":[{"name":"Scene","nodes":[0]}],"nodes":[{"mesh":0,"name":"gear_clockwork_LOD1"}],"materials":[{"emissiveFactor":[1,1,1],"emissiveTexture":{"index":0},"extensions":{"KHR_materials_emissive_strength":{"emissiveStrength":3}},"name":"azure_atlas","normalTexture":{"index":1},"occlusionTexture":{"index":2},"pbrMetallicRoughness":{"baseColorTexture":{"index":3},"metallicRoughnessTexture":{"index":2}},"doubleSided":false}],"meshes":[{"name":"gear_clockwork_LOD1.001","primitives":[{"attributes":{"POSITION":0,"NORMAL":1,"TEXCOORD_0":2},"indices":3,"material":0}]}],"textures":[{"sampler":0,"source":0},{"sampler":0,"source":1},{"sampler":0,"source":2},{"sampler":0,"source":3}],"images":[{"mimeType":"image/png","name":"azure_emissive","uri":"textures/azure_emissive.png"},{"mimeType":"image/png","name":"azure_normal","uri":"textures/azure_normal.png"},{"mimeType":"image/png","name":"azure_orm","uri":"textures/azure_orm.png"},{"mimeType":"image/png","name":"azure_albedo","uri":"textures/azure_albedo.png"}],"accessors":[{"bufferView":0,"componentType":5126,"count":861,"max":[0.5892687439918518,0.5908539295196533,0.1528949737548828],"min":[-0.5890071392059326,-0.5889566540718079,-0.09562148153781891],"type":"VEC3"},{"bufferView":1,"componentType":5126,"count":861,"type":"VEC3"},{"bufferView":2,"componentType":5126,"count":861,"type":"VEC2"},{"bufferView":3,"componentType":5123,"count":1740,"type":"SCALAR"}],"bufferViews":[{"buffer":0,"byteLength":10332,"byteOffset":0,"target":34962},{"buffer":0,"byteLength":10332,"byteOffset":10332,"target":34962},{"buffer":0,"byteLength":6888,"byteOffset":20664,"target":34962},{"buffer":0,"byteLength":3480,"byteOffset":27552,"target":34963}],"samplers":[{"magFilter":9729,"minFilter":9987}],"buffers":[{"byteLength":31032,"uri":"gear_clockwork_lod1.bin"}]}