{"asset":{"generator":"Crestbound propkit (Blender 5.1.2)","version":"2.0"},"extensionsUsed":["KHR_materials_emissive_strength"],"scene":0,"scenes":[{"name":"Scene","nodes":[0]}],"nodes":[{"mesh":0,"name":"gear_clockwork"}],"animations":[{"channels":[{"sampler":0,"target":{"node":0,"path":"rotation"}}],"name":"spin","samplers":[{"input":4,"interpolation":"LINEAR","output":5}]}],"materials":[{"emissiveFactor":[1,1,1],"emissiveTexture":{"index":0},"extensions":{"KHR_materials_emissive_strength":{"emissiveStrength":3}},"name":"azure_atlas","normalTexture":{"index":1},"occlusionTexture":{"index":2},"pbrMetallicRoughness":{"baseColorTexture":{"index":3},"metallicRoughnessTexture":{"index":2}},"doubleSided":false}],"meshes":[{"name":"gear_clockwork.001","primitives":[{"attributes":{"POSITION":0,"NORMAL":1,"TEXCOORD_0":2},"indices":3,"material":0}]}],"textures":[{"sampler":0,"source":0},{"sampler":0,"source":1},{"sampler":0,"source":2},{"sampler":0,"source":3}],"images":[{"mimeType":"image/png","name":"azure_emissive","uri":"textures/azure_emissive.png"},{"mimeType":"image/png","name":"azure_normal","uri":"textures/azure_normal.png"},{"mimeType":"image/png","name":"azure_orm","uri":"textures/azure_orm.png"},{"mimeType":"image/png","name":"azure_albedo","uri":"textures/azure_albedo.png"}],"accessors":[{"bufferView":0,"componentType":5126,"count":1691,"max":[0.5934363603591919,0.5943695306777954,0.14900000393390656],"min":[-0.5934363603591919,-0.5934363603591919,-0.10000002384185791],"type":"VEC3"},{"bufferView":1,"componentType":5126,"count":1691,"type":"VEC3"},{"bufferView":2,"componentType":5126,"count":1691,"type":"VEC2"},{"bufferView":3,"componentType":5123,"count":4362,"type":"SCALAR"},{"bufferView":4,"componentType":5126,"count":169,"max":[7.041666666666667],"min":[0.041666666666666664],"type":"SCALAR"},{"bufferView":5,"componentType":5126,"count":169,"type":"VEC4"}],"bufferViews":[{"buffer":0,"byteLength":20292,"byteOffset":0,"target":34962},{"buffer":0,"byteLength":20292,"byteOffset":20292,"target":34962},{"buffer":0,"byteLength":13528,"byteOffset":40584,"target":34962},{"buffer":0,"byteLength":8724,"byteOffset":54112,"target":34963},{"buffer":0,"byteLength":676,"byteOffset":62836},{"buffer":0,"byteLength":2704,"byteOffset":63512}],"samplers":[{"magFilter":9729,"minFilter":9987}],"buffers":[{"byteLength":66216,"uri":"gear_clockwork.bin"}]}