{"asset":{"generator":"Crestbound propkit (Blender 5.1.2)","version":"2.0"},"extensionsUsed":["KHR_materials_emissive_strength"],"scene":0,"scenes":[{"name":"Scene","nodes":[0]}],"nodes":[{"mesh":0,"name":"prism_crystal"}],"materials":[{"emissiveFactor":[1,1,1],"emissiveTexture":{"index":0},"extensions":{"KHR_materials_emissive_strength":{"emissiveStrength":3}},"name":"azure_atlas","normalTexture":{"index":1},"occlusionTexture":{"index":2},"pbrMetallicRoughness":{"baseColorTexture":{"index":3},"metallicRoughnessTexture":{"index":2}},"doubleSided":false}],"meshes":[{"name":"prism_crystal","primitives":[{"attributes":{"POSITION":0,"NORMAL":1,"TEXCOORD_0":2},"indices":3,"material":0}]}],"textures":[{"sampler":0,"source":0},{"sampler":0,"source":1},{"sampler":0,"source":2},{"sampler":0,"source":3}],"images":[{"mimeType":"image/png","name":"azure_emissive","uri":"textures/azure_emissive.png"},{"mimeType":"image/png","name":"azure_normal","uri":"textures/azure_normal.png"},{"mimeType":"image/png","name":"azure_orm","uri":"textures/azure_orm.png"},{"mimeType":"image/png","name":"azure_albedo","uri":"textures/azure_albedo.png"}],"accessors":[{"bufferView":0,"componentType":5126,"count":478,"max":[0.3107520043849945,1.6200000047683716,0.26919975876808167],"min":[-0.28359362483024597,-0.030000008642673492,-0.3322438597679138],"type":"VEC3"},{"bufferView":1,"componentType":5126,"count":478,"type":"VEC3"},{"bufferView":2,"componentType":5126,"count":478,"type":"VEC2"},{"bufferView":3,"componentType":5123,"count":600,"type":"SCALAR"}],"bufferViews":[{"buffer":0,"byteLength":5736,"byteOffset":0,"target":34962},{"buffer":0,"byteLength":5736,"byteOffset":5736,"target":34962},{"buffer":0,"byteLength":3824,"byteOffset":11472,"target":34962},{"buffer":0,"byteLength":1200,"byteOffset":15296,"target":34963}],"samplers":[{"magFilter":9729,"minFilter":9987}],"buffers":[{"byteLength":16496,"uri":"prism_crystal.bin"}]}