{"asset":{"generator":"Crestbound propkit (Blender 5.1.2)","version":"2.0"},"extensionsUsed":["KHR_materials_emissive_strength"],"scene":0,"scenes":[{"name":"Scene","nodes":[0]}],"nodes":[{"mesh":0,"name":"temple_column_short_LOD1"}],"materials":[{"emissiveFactor":[1,1,1],"emissiveTexture":{"index":0},"extensions":{"KHR_materials_emissive_strength":{"emissiveStrength":3}},"name":"azure_atlas","normalTexture":{"index":1},"occlusionTexture":{"index":2},"pbrMetallicRoughness":{"baseColorTexture":{"index":3},"metallicRoughnessTexture":{"index":2}},"doubleSided":false}],"meshes":[{"name":"temple_column_short_LOD1.001","primitives":[{"attributes":{"POSITION":0,"NORMAL":1,"TEXCOORD_0":2},"indices":3,"material":0}]}],"textures":[{"sampler":0,"source":0},{"sampler":0,"source":1},{"sampler":0,"source":2},{"sampler":0,"source":3}],"images":[{"mimeType":"image/png","name":"azure_emissive","uri":"textures/azure_emissive.png"},{"mimeType":"image/png","name":"azure_normal","uri":"textures/azure_normal.png"},{"mimeType":"image/png","name":"azure_orm","uri":"textures/azure_orm.png"},{"mimeType":"image/png","name":"azure_albedo","uri":"textures/azure_albedo.png"}],"accessors":[{"bufferView":0,"componentType":5126,"count":615,"max":[0.42438459396362305,2.424999952316284,0.42399999499320984],"min":[-0.42438459396362305,0.008333335630595684,-0.42399999499320984],"type":"VEC3"},{"bufferView":1,"componentType":5126,"count":615,"type":"VEC3"},{"bufferView":2,"componentType":5126,"count":615,"type":"VEC2"},{"bufferView":3,"componentType":5123,"count":1662,"type":"SCALAR"}],"bufferViews":[{"buffer":0,"byteLength":7380,"byteOffset":0,"target":34962},{"buffer":0,"byteLength":7380,"byteOffset":7380,"target":34962},{"buffer":0,"byteLength":4920,"byteOffset":14760,"target":34962},{"buffer":0,"byteLength":3324,"byteOffset":19680,"target":34963}],"samplers":[{"magFilter":9729,"minFilter":9987}],"buffers":[{"byteLength":23004,"uri":"temple_column_short_lod1.bin"}]}