{"asset":{"generator":"Crestbound propkit (Blender 5.1.2)","version":"2.0"},"extensionsUsed":["KHR_materials_emissive_strength"],"scene":0,"scenes":[{"name":"Scene","nodes":[0]}],"nodes":[{"mesh":0,"name":"basalt_rock_a"}],"materials":[{"emissiveFactor":[1,1,1],"emissiveTexture":{"index":0},"extensions":{"KHR_materials_emissive_strength":{"emissiveStrength":4}},"name":"ember_atlas","normalTexture":{"index":1},"occlusionTexture":{"index":2},"pbrMetallicRoughness":{"baseColorTexture":{"index":3},"metallicRoughnessTexture":{"index":2}},"doubleSided":false}],"meshes":[{"name":"basalt_rock_a","primitives":[{"attributes":{"POSITION":0,"NORMAL":1,"TEXCOORD_0":2},"indices":3,"material":0}]}],"textures":[{"sampler":0,"source":0},{"sampler":0,"source":1},{"sampler":0,"source":2},{"sampler":0,"source":3}],"images":[{"mimeType":"image/png","name":"ember_emissive","uri":"textures/ember_emissive.png"},{"mimeType":"image/png","name":"ember_normal","uri":"textures/ember_normal.png"},{"mimeType":"image/png","name":"ember_orm","uri":"textures/ember_orm.png"},{"mimeType":"image/png","name":"ember_albedo","uri":"textures/ember_albedo.png"}],"accessors":[{"bufferView":0,"componentType":5126,"count":1008,"max":[0.7384064197540283,1.3190127611160278,0.6592312455177307],"min":[-0.6406073570251465,-0.0630401223897934,-0.7106224298477173],"type":"VEC3"},{"bufferView":1,"componentType":5126,"count":1008,"type":"VEC3"},{"bufferView":2,"componentType":5126,"count":1008,"type":"VEC2"},{"bufferView":3,"componentType":5123,"count":1428,"type":"SCALAR"}],"bufferViews":[{"buffer":0,"byteLength":12096,"byteOffset":0,"target":34962},{"buffer":0,"byteLength":12096,"byteOffset":12096,"target":34962},{"buffer":0,"byteLength":8064,"byteOffset":24192,"target":34962},{"buffer":0,"byteLength":2856,"byteOffset":32256,"target":34963}],"samplers":[{"magFilter":9729,"minFilter":9987}],"buffers":[{"byteLength":35112,"uri":"basalt_rock_a.bin"}]}