{"asset":{"generator":"Crestbound propkit (Blender 5.1.2)","version":"2.0"},"extensionsUsed":["KHR_materials_emissive_strength"],"scene":0,"scenes":[{"name":"Scene","nodes":[0]}],"nodes":[{"mesh":0,"name":"catwalk_grate"}],"materials":[{"alphaMode":"MASK","doubleSided":true,"emissiveFactor":[1,1,1],"emissiveTexture":{"index":0},"extensions":{"KHR_materials_emissive_strength":{"emissiveStrength":4}},"name":"ember_atlas_cutout","normalTexture":{"index":1},"occlusionTexture":{"index":2},"pbrMetallicRoughness":{"baseColorTexture":{"index":3},"metallicRoughnessTexture":{"index":2}},"alphaCutoff":0.5}],"meshes":[{"name":"catwalk_grate","primitives":[{"attributes":{"POSITION":0,"NORMAL":1,"TEXCOORD_0":2},"indices":3,"material":0}]}],"textures":[{"sampler":0,"source":0},{"sampler":0,"source":1},{"sampler":0,"source":2},{"sampler":0,"source":3}],"images":[{"mimeType":"image/png","name":"ember_emissive","uri":"textures/ember_emissive.png"},{"mimeType":"image/png","name":"ember_normal","uri":"textures/ember_normal.png"},{"mimeType":"image/png","name":"ember_orm","uri":"textures/ember_orm.png"},{"mimeType":"image/png","name":"ember_albedo","uri":"textures/ember_albedo.png"}],"accessors":[{"bufferView":0,"componentType":5126,"count":508,"max":[1,0.1599999964237213,0.5],"min":[-1,0,-0.5],"type":"VEC3"},{"bufferView":1,"componentType":5126,"count":508,"type":"VEC3"},{"bufferView":2,"componentType":5126,"count":508,"type":"VEC2"},{"bufferView":3,"componentType":5123,"count":1110,"type":"SCALAR"}],"bufferViews":[{"buffer":0,"byteLength":6096,"byteOffset":0,"target":34962},{"buffer":0,"byteLength":6096,"byteOffset":6096,"target":34962},{"buffer":0,"byteLength":4064,"byteOffset":12192,"target":34962},{"buffer":0,"byteLength":2220,"byteOffset":16256,"target":34963}],"samplers":[{"magFilter":9729,"minFilter":9987}],"buffers":[{"byteLength":18476,"uri":"catwalk_grate.bin"}]}