{"asset":{"generator":"Crestbound propkit (Blender 5.1.2)","version":"2.0"},"extensionsUsed":["KHR_materials_emissive_strength"],"scene":0,"scenes":[{"name":"Scene","nodes":[0]}],"nodes":[{"mesh":0,"name":"catwalk_grate_LOD1"}],"materials":[{"alphaMode":"MASK","doubleSided":true,"emissiveFactor":[1,1,1],"emissiveTexture":{"index":0},"extensions":{"KHR_materials_emissive_strength":{"emissiveStrength":4}},"name":"ember_atlas_cutout","normalTexture":{"index":1},"occlusionTexture":{"index":2},"pbrMetallicRoughness":{"baseColorTexture":{"index":3},"metallicRoughnessTexture":{"index":2}},"alphaCutoff":0.5}],"meshes":[{"name":"catwalk_grate_LOD1.001","primitives":[{"attributes":{"POSITION":0,"NORMAL":1,"TEXCOORD_0":2},"indices":3,"material":0}]}],"textures":[{"sampler":0,"source":0},{"sampler":0,"source":1},{"sampler":0,"source":2},{"sampler":0,"source":3}],"images":[{"mimeType":"image/png","name":"ember_emissive","uri":"textures/ember_emissive.png"},{"mimeType":"image/png","name":"ember_normal","uri":"textures/ember_normal.png"},{"mimeType":"image/png","name":"ember_orm","uri":"textures/ember_orm.png"},{"mimeType":"image/png","name":"ember_albedo","uri":"textures/ember_albedo.png"}],"accessors":[{"bufferView":0,"componentType":5126,"count":294,"max":[0.9969230890274048,0.15833334624767303,0.4983333349227905],"min":[-0.9969230890274048,0.0020000003278255463,-0.4983333349227905],"type":"VEC3"},{"bufferView":1,"componentType":5126,"count":294,"type":"VEC3"},{"bufferView":2,"componentType":5126,"count":294,"type":"VEC2"},{"bufferView":3,"componentType":5123,"count":444,"type":"SCALAR"}],"bufferViews":[{"buffer":0,"byteLength":3528,"byteOffset":0,"target":34962},{"buffer":0,"byteLength":3528,"byteOffset":3528,"target":34962},{"buffer":0,"byteLength":2352,"byteOffset":7056,"target":34962},{"buffer":0,"byteLength":888,"byteOffset":9408,"target":34963}],"samplers":[{"magFilter":9729,"minFilter":9987}],"buffers":[{"byteLength":10296,"uri":"catwalk_grate_lod1.bin"}]}