{"asset":{"generator":"Crestbound propkit (Blender 5.1.2)","version":"2.0"},"extensionsUsed":["KHR_materials_emissive_strength"],"scene":0,"scenes":[{"name":"Scene","nodes":[0]}],"nodes":[{"mesh":0,"name":"furnace_vent_LOD1"}],"materials":[{"emissiveFactor":[1,1,1],"emissiveTexture":{"index":0},"extensions":{"KHR_materials_emissive_strength":{"emissiveStrength":4}},"name":"ember_atlas","normalTexture":{"index":1},"occlusionTexture":{"index":2},"pbrMetallicRoughness":{"baseColorTexture":{"index":3},"metallicRoughnessTexture":{"index":2}},"doubleSided":false}],"meshes":[{"name":"furnace_vent_LOD1.001","primitives":[{"attributes":{"POSITION":0,"NORMAL":1,"TEXCOORD_0":2},"indices":3,"material":0}]}],"textures":[{"sampler":0,"source":0},{"sampler":0,"source":1},{"sampler":0,"source":2},{"sampler":0,"source":3}],"images":[{"mimeType":"image/png","name":"ember_emissive","uri":"textures/ember_emissive.png"},{"mimeType":"image/png","name":"ember_normal","uri":"textures/ember_normal.png"},{"mimeType":"image/png","name":"ember_orm","uri":"textures/ember_orm.png"},{"mimeType":"image/png","name":"ember_albedo","uri":"textures/ember_albedo.png"}],"accessors":[{"bufferView":0,"componentType":5126,"count":871,"max":[0.4915514290332794,0.5800000429153442,0.506391167640686],"min":[-0.4915514290332794,-6.160174962133169e-05,-0.4915514290332794],"type":"VEC3"},{"bufferView":1,"componentType":5126,"count":871,"type":"VEC3"},{"bufferView":2,"componentType":5126,"count":871,"type":"VEC2"},{"bufferView":3,"componentType":5123,"count":1740,"type":"SCALAR"}],"bufferViews":[{"buffer":0,"byteLength":10452,"byteOffset":0,"target":34962},{"buffer":0,"byteLength":10452,"byteOffset":10452,"target":34962},{"buffer":0,"byteLength":6968,"byteOffset":20904,"target":34962},{"buffer":0,"byteLength":3480,"byteOffset":27872,"target":34963}],"samplers":[{"magFilter":9729,"minFilter":9987}],"buffers":[{"byteLength":31352,"uri":"furnace_vent_lod1.bin"}]}