{"asset":{"generator":"Crestbound propkit (Blender 5.1.2)","version":"2.0"},"extensionsUsed":["KHR_materials_emissive_strength"],"scene":0,"scenes":[{"name":"Scene","nodes":[0]}],"nodes":[{"mesh":0,"name":"gear_small"}],"animations":[{"channels":[{"sampler":0,"target":{"node":0,"path":"rotation"}}],"name":"spin.001","samplers":[{"input":4,"interpolation":"LINEAR","output":5}]}],"materials":[{"emissiveFactor":[1,1,1],"emissiveTexture":{"index":0},"extensions":{"KHR_materials_emissive_strength":{"emissiveStrength":4}},"name":"ember_atlas","normalTexture":{"index":1},"occlusionTexture":{"index":2},"pbrMetallicRoughness":{"baseColorTexture":{"index":3},"metallicRoughnessTexture":{"index":2}},"doubleSided":false}],"meshes":[{"name":"gear_small","primitives":[{"attributes":{"POSITION":0,"NORMAL":1,"TEXCOORD_0":2},"indices":3,"material":0}]}],"textures":[{"sampler":0,"source":0},{"sampler":0,"source":1},{"sampler":0,"source":2},{"sampler":0,"source":3}],"images":[{"mimeType":"image/png","name":"ember_emissive","uri":"textures/ember_emissive.png"},{"mimeType":"image/png","name":"ember_normal","uri":"textures/ember_normal.png"},{"mimeType":"image/png","name":"ember_orm","uri":"textures/ember_orm.png"},{"mimeType":"image/png","name":"ember_albedo","uri":"textures/ember_albedo.png"}],"accessors":[{"bufferView":0,"componentType":5126,"count":1310,"max":[0.29193463921546936,0.29936590790748596,0.1080000028014183],"min":[-0.29193463921546936,-0.29936590790748596,-0.1080000028014183],"type":"VEC3"},{"bufferView":1,"componentType":5126,"count":1310,"type":"VEC3"},{"bufferView":2,"componentType":5126,"count":1310,"type":"VEC2"},{"bufferView":3,"componentType":5123,"count":3552,"type":"SCALAR"},{"bufferView":4,"componentType":5126,"count":145,"max":[6.041666666666667],"min":[0.041666666666666664],"type":"SCALAR"},{"bufferView":5,"componentType":5126,"count":145,"type":"VEC4"}],"bufferViews":[{"buffer":0,"byteLength":15720,"byteOffset":0,"target":34962},{"buffer":0,"byteLength":15720,"byteOffset":15720,"target":34962},{"buffer":0,"byteLength":10480,"byteOffset":31440,"target":34962},{"buffer":0,"byteLength":7104,"byteOffset":41920,"target":34963},{"buffer":0,"byteLength":580,"byteOffset":49024},{"buffer":0,"byteLength":2320,"byteOffset":49604}],"samplers":[{"magFilter":9729,"minFilter":9987}],"buffers":[{"byteLength":51924,"uri":"gear_small.bin"}]}