{"asset":{"generator":"Crestbound propkit (Blender 5.1.2)","version":"2.0"},"extensionsUsed":["KHR_materials_emissive_strength"],"scene":0,"scenes":[{"name":"Scene","nodes":[0]}],"nodes":[{"mesh":0,"name":"gear"}],"animations":[{"channels":[{"sampler":0,"target":{"node":0,"path":"rotation"}}],"name":"spin","samplers":[{"input":4,"interpolation":"LINEAR","output":5}]}],"materials":[{"emissiveFactor":[1,1,1],"emissiveTexture":{"index":0},"extensions":{"KHR_materials_emissive_strength":{"emissiveStrength":4}},"name":"ember_atlas","normalTexture":{"index":1},"occlusionTexture":{"index":2},"pbrMetallicRoughness":{"baseColorTexture":{"index":3},"metallicRoughnessTexture":{"index":2}},"doubleSided":false}],"meshes":[{"name":"gear.001","primitives":[{"attributes":{"POSITION":0,"NORMAL":1,"TEXCOORD_0":2},"indices":3,"material":0}]}],"textures":[{"sampler":0,"source":0},{"sampler":0,"source":1},{"sampler":0,"source":2},{"sampler":0,"source":3}],"images":[{"mimeType":"image/png","name":"ember_emissive","uri":"textures/ember_emissive.png"},{"mimeType":"image/png","name":"ember_normal","uri":"textures/ember_normal.png"},{"mimeType":"image/png","name":"ember_orm","uri":"textures/ember_orm.png"},{"mimeType":"image/png","name":"ember_albedo","uri":"textures/ember_albedo.png"}],"accessors":[{"bufferView":0,"componentType":5126,"count":1708,"max":[0.5917155146598816,0.599345862865448,0.15600000321865082],"min":[-0.5917155146598816,-0.599345862865448,-0.15600000321865082],"type":"VEC3"},{"bufferView":1,"componentType":5126,"count":1708,"type":"VEC3"},{"bufferView":2,"componentType":5126,"count":1708,"type":"VEC2"},{"bufferView":3,"componentType":5123,"count":4362,"type":"SCALAR"},{"bufferView":4,"componentType":5126,"count":145,"max":[6.041666666666667],"min":[0.041666666666666664],"type":"SCALAR"},{"bufferView":5,"componentType":5126,"count":145,"type":"VEC4"}],"bufferViews":[{"buffer":0,"byteLength":20496,"byteOffset":0,"target":34962},{"buffer":0,"byteLength":20496,"byteOffset":20496,"target":34962},{"buffer":0,"byteLength":13664,"byteOffset":40992,"target":34962},{"buffer":0,"byteLength":8724,"byteOffset":54656,"target":34963},{"buffer":0,"byteLength":580,"byteOffset":63380},{"buffer":0,"byteLength":2320,"byteOffset":63960}],"samplers":[{"magFilter":9729,"minFilter":9987}],"buffers":[{"byteLength":66280,"uri":"gear.bin"}]}