{"asset":{"generator":"Crestbound propkit (Blender 5.1.2)","version":"2.0"},"extensionsUsed":["KHR_materials_emissive_strength"],"scene":0,"scenes":[{"name":"Scene","nodes":[0]}],"nodes":[{"mesh":0,"name":"pipe_straight_LOD1"}],"materials":[{"emissiveFactor":[1,1,1],"emissiveTexture":{"index":0},"extensions":{"KHR_materials_emissive_strength":{"emissiveStrength":4}},"name":"ember_atlas","normalTexture":{"index":1},"occlusionTexture":{"index":2},"pbrMetallicRoughness":{"baseColorTexture":{"index":3},"metallicRoughnessTexture":{"index":2}},"doubleSided":false}],"meshes":[{"name":"pipe_straight_LOD1.001","primitives":[{"attributes":{"POSITION":0,"NORMAL":1,"TEXCOORD_0":2},"indices":3,"material":0}]}],"textures":[{"sampler":0,"source":0},{"sampler":0,"source":1},{"sampler":0,"source":2},{"sampler":0,"source":3}],"images":[{"mimeType":"image/png","name":"ember_emissive","uri":"textures/ember_emissive.png"},{"mimeType":"image/png","name":"ember_normal","uri":"textures/ember_normal.png"},{"mimeType":"image/png","name":"ember_orm","uri":"textures/ember_orm.png"},{"mimeType":"image/png","name":"ember_albedo","uri":"textures/ember_albedo.png"}],"accessors":[{"bufferView":0,"componentType":5126,"count":761,"max":[0.3230000138282776,0.6452581882476807,1.2000000476837158],"min":[-0.3230000138282776,0.002499965252354741,-2.365612745285034],"type":"VEC3"},{"bufferView":1,"componentType":5126,"count":761,"type":"VEC3"},{"bufferView":2,"componentType":5126,"count":761,"type":"VEC2"},{"bufferView":3,"componentType":5123,"count":1440,"type":"SCALAR"}],"bufferViews":[{"buffer":0,"byteLength":9132,"byteOffset":0,"target":34962},{"buffer":0,"byteLength":9132,"byteOffset":9132,"target":34962},{"buffer":0,"byteLength":6088,"byteOffset":18264,"target":34962},{"buffer":0,"byteLength":2880,"byteOffset":24352,"target":34963}],"samplers":[{"magFilter":9729,"minFilter":9987}],"buffers":[{"byteLength":27232,"uri":"pipe_straight_lod1.bin"}]}