{"asset":{"generator":"Crestbound propkit (Blender 5.1.2)","version":"2.0"},"extensionsUsed":["KHR_materials_emissive_strength"],"scene":0,"scenes":[{"name":"Scene","nodes":[0]}],"nodes":[{"mesh":0,"name":"pipe_straight"}],"materials":[{"emissiveFactor":[1,1,1],"emissiveTexture":{"index":0},"extensions":{"KHR_materials_emissive_strength":{"emissiveStrength":4}},"name":"ember_atlas","normalTexture":{"index":1},"occlusionTexture":{"index":2},"pbrMetallicRoughness":{"baseColorTexture":{"index":3},"metallicRoughnessTexture":{"index":2}},"doubleSided":false}],"meshes":[{"name":"pipe_straight","primitives":[{"attributes":{"POSITION":0,"NORMAL":1,"TEXCOORD_0":2},"indices":3,"material":0}]}],"textures":[{"sampler":0,"source":0},{"sampler":0,"source":1},{"sampler":0,"source":2},{"sampler":0,"source":3}],"images":[{"mimeType":"image/png","name":"ember_emissive","uri":"textures/ember_emissive.png"},{"mimeType":"image/png","name":"ember_normal","uri":"textures/ember_normal.png"},{"mimeType":"image/png","name":"ember_orm","uri":"textures/ember_orm.png"},{"mimeType":"image/png","name":"ember_albedo","uri":"textures/ember_albedo.png"}],"accessors":[{"bufferView":0,"componentType":5126,"count":1602,"max":[0.3230000138282776,0.6410525441169739,1.2000000476837158],"min":[-0.3230000138282776,0,-2.365000009536743],"type":"VEC3"},{"bufferView":1,"componentType":5126,"count":1602,"type":"VEC3"},{"bufferView":2,"componentType":5126,"count":1602,"type":"VEC2"},{"bufferView":3,"componentType":5123,"count":3600,"type":"SCALAR"}],"bufferViews":[{"buffer":0,"byteLength":19224,"byteOffset":0,"target":34962},{"buffer":0,"byteLength":19224,"byteOffset":19224,"target":34962},{"buffer":0,"byteLength":12816,"byteOffset":38448,"target":34962},{"buffer":0,"byteLength":7200,"byteOffset":51264,"target":34963}],"samplers":[{"magFilter":9729,"minFilter":9987}],"buffers":[{"byteLength":58464,"uri":"pipe_straight.bin"}]}