{"asset":{"generator":"Crestbound propkit (Blender 5.1.2)","version":"2.0"},"extensionsUsed":["KHR_materials_emissive_strength"],"scene":0,"scenes":[{"name":"Scene","nodes":[0]}],"nodes":[{"mesh":0,"name":"slag_chunk_a"}],"materials":[{"emissiveFactor":[1,1,1],"emissiveTexture":{"index":0},"extensions":{"KHR_materials_emissive_strength":{"emissiveStrength":4}},"name":"ember_atlas","normalTexture":{"index":1},"occlusionTexture":{"index":2},"pbrMetallicRoughness":{"baseColorTexture":{"index":3},"metallicRoughnessTexture":{"index":2}},"doubleSided":false}],"meshes":[{"name":"slag_chunk_a","primitives":[{"attributes":{"POSITION":0,"NORMAL":1,"TEXCOORD_0":2},"indices":3,"material":0}]}],"textures":[{"sampler":0,"source":0},{"sampler":0,"source":1},{"sampler":0,"source":2},{"sampler":0,"source":3}],"images":[{"mimeType":"image/png","name":"ember_emissive","uri":"textures/ember_emissive.png"},{"mimeType":"image/png","name":"ember_normal","uri":"textures/ember_normal.png"},{"mimeType":"image/png","name":"ember_orm","uri":"textures/ember_orm.png"},{"mimeType":"image/png","name":"ember_albedo","uri":"textures/ember_albedo.png"}],"accessors":[{"bufferView":0,"componentType":5126,"count":914,"max":[0.5132484436035156,0.4295082688331604,0.3652487099170685],"min":[-0.4184547960758209,0,-0.397466778755188],"type":"VEC3"},{"bufferView":1,"componentType":5126,"count":914,"type":"VEC3"},{"bufferView":2,"componentType":5126,"count":914,"type":"VEC2"},{"bufferView":3,"componentType":5123,"count":960,"type":"SCALAR"}],"bufferViews":[{"buffer":0,"byteLength":10968,"byteOffset":0,"target":34962},{"buffer":0,"byteLength":10968,"byteOffset":10968,"target":34962},{"buffer":0,"byteLength":7312,"byteOffset":21936,"target":34962},{"buffer":0,"byteLength":1920,"byteOffset":29248,"target":34963}],"samplers":[{"magFilter":9729,"minFilter":9987}],"buffers":[{"byteLength":31168,"uri":"slag_chunk_a.bin"}]}